<svg xmlns="http://www.w3.org/2000/svg" viewBox="0 0 18.55 18.55" id="icon">
  <title>Be_Ro</title>
  <g id="ff65dea3-7dfe-447e-9841-30b79117488e" data-name="katman 2">
    <g id="381fa4ad-6e0b-4751-8d9c-f78faf17026a" data-name="katman 1">
      <g >
        <path d="M12.48,8.41a1.25,1.25,0,0,0-1.23,1.08h2.29A1,1,0,0,0,12.48,8.41Z" />
        <path d="M7.28,9.49h-2v1.86H7.18c.29,0,.84-.09.84-.91C8,9.48,7.28,9.49,7.28,9.49Z"/>
        <path d="M7.77,7.58c0-.73-.49-.73-.49-.73h-2V8.41h1.9C7.48,8.41,7.77,8.31,7.77,7.58Z" />
        <path d="M16.87,0H1.68A1.68,1.68,0,0,0,0,1.68V16.87a1.68,1.68,0,0,0,1.68,1.68H16.87a1.68,1.68,0,0,0,1.68-1.68V1.68A1.68,1.68,0,0,0,16.87,0ZM10.95,6h2.88v.86H10.95ZM9.49,10.54a2.07,2.07,0,0,1-2.22,2.06H3.65v-7H7.28a1.78,1.78,0,0,1,2,1.86A1.21,1.21,0,0,1,8.19,8.8C9.59,8.8,9.49,10.54,9.49,10.54Zm5.38-.11H11.26a1.13,1.13,0,0,0,1.23,1.21c1.16,0,1.12-.75,1.12-.75h1.23c0,2-2.39,1.85-2.39,1.85a2.47,2.47,0,0,1-2.68-2.67,2.62,2.62,0,0,1,2.68-2.68C15.27,7.39,14.88,10.42,14.88,10.42Z" />
      </g>
    </g>
  </g>
</svg>
