<svg xmlns="http://www.w3.org/2000/svg" viewBox="0 0 18.55 18.55" id="icon">
  <title>Be_Ro2</title>
  <g id="d827d7f3-4a98-4c98-bded-233f49f39736" data-name="katman 2">
    <g id="bbac25b5-bad0-47f3-bb50-01ca45b12de6" data-name="katman 1">
      <g>
        <path d="M7.47,9.46H5.63v1.69H7.37c.26,0,.76-.08.76-.82S7.47,9.46,7.47,9.46Z"/>
        <path d="M12.17,8.49a1.13,1.13,0,0,0-1.11,1h2.08A.94.94,0,0,0,12.17,8.49Z"/>
        <path d="M7.91,7.73c0-.66-.45-.66-.45-.66H5.63V8.49H7.35C7.65,8.49,7.91,8.39,7.91,7.73Z"/>
        <path d="M9.27,0a9.27,9.27,0,1,0,9.27,9.27A9.27,9.27,0,0,0,9.27,0Zm1.52,6.33H13.4V7.1H10.79ZM9.47,10.41a1.87,1.87,0,0,1-2,1.86H4.18V6H7.47A1.61,1.61,0,0,1,9.25,7.64a1.1,1.1,0,0,1-1,1.2C9.56,8.84,9.47,10.41,9.47,10.41Zm4.87-.1H11.08a1,1,0,0,0,1.11,1.1c1.05,0,1-.68,1-.68h1.11c0,1.8-2.16,1.68-2.16,1.68A2.24,2.24,0,0,1,9.72,10a2.38,2.38,0,0,1,2.43-2.43C14.71,7.56,14.35,10.3,14.35,10.3Z"/>
      </g>
    </g>
  </g>
</svg>
