<svg id="menu_kapali" data-name="menu kapali" xmlns="http://www.w3.org/2000/svg" width="42.4" height="42.406" viewBox="0 0 42.4 42.406">
  <metadata><?xpacket begin="﻿" id="W5M0MpCehiHzreSzNTczkc9d"?>
<x:xmpmeta xmlns:x="adobe:ns:meta/" x:xmptk="Adobe XMP Core 5.6-c138 79.159824, 2016/09/14-01:09:01        ">
   <rdf:RDF xmlns:rdf="http://www.w3.org/1999/02/22-rdf-syntax-ns#">
      <rdf:Description rdf:about=""/>
   </rdf:RDF>
</x:xmpmeta>
                                                                                                    
                                                                                                    
                                                                                                    
                                                                                                    
                                                                                                    
                                                                                                    
                                                                                                    
                                                                                                    
                                                                                                    
                                                                                                    
                                                                                                    
                                                                                                    
                                                                                                    
                                                                                                    
                                                                                                    
                                                                                                    
                                                                                                    
                                                                                                    
                                                                                                    
                                                                                                    
                           
<?xpacket end="w"?></metadata>
<defs>
    <style>
      .cls-1 {
        fill: #fff;
        stroke: #929ca5;
        stroke-linejoin: round;
        stroke-width: 2px;
      }

      .cls-2 {
        fill: #929ca5;
        fill-rule: evenodd;
      }
    </style>
  </defs>
  <circle id="Elips_2755" data-name="Elips 2755" class="cls-1" cx="21.2" cy="21.203" r="20.2"/>
  <path id="EQ" class="cls-2" d="M1891.11,46.695v9.031a1.155,1.155,0,1,1-2.31,0V46.695a4.237,4.237,0,0,1,0-8.152V36.451a1.155,1.155,0,1,1,2.31,0v2.092A4.233,4.233,0,0,1,1891.11,46.695Zm-1.15-6a1.928,1.928,0,1,0,1.92,1.928A1.927,1.927,0,0,0,1889.96,40.691Zm-7.33,12.943v2.092a1.155,1.155,0,1,1-2.31,0V53.634a4.234,4.234,0,0,1,0-8.153V36.451a1.155,1.155,0,1,1,2.31,0v9.031A4.234,4.234,0,0,1,1882.63,53.634Zm-1.16-6a1.928,1.928,0,1,0,1.93,1.928A1.925,1.925,0,0,0,1881.47,47.63Zm-7.32-.936v9.031a1.155,1.155,0,1,1-2.31,0V46.695a4.233,4.233,0,0,1,0-8.152V36.451a1.155,1.155,0,1,1,2.31,0v2.092A4.237,4.237,0,0,1,1874.15,46.695Zm-1.16-6a1.928,1.928,0,1,0,1.93,1.928A1.925,1.925,0,0,0,1872.99,40.691Z" transform="translate(-1860.19 -25.188)"/>
</svg>
