<svg xmlns="http://www.w3.org/2000/svg" viewBox="0 0 18.55 18.55" id="icon">
  <title>Fb_Ro</title>
  <g id="d1777be5-6a3c-46c5-af46-4acbcfee7cb9" data-name="katman 2">
    <g id="b321bb5e-11d9-4eb3-af5d-e41df0833b11" data-name="katman 1">
      <path d="M16.87,0H1.68A1.68,1.68,0,0,0,0,1.68V16.87a1.68,1.68,0,0,0,1.68,1.68H16.87a1.68,1.68,0,0,0,1.68-1.68V1.68A1.68,1.68,0,0,0,16.87,0ZM15.82,9.45h-2V16.5H10.78V9.45H9.28V6.78h1.5V4.59a2.56,2.56,0,0,1,2.74-2.39c2.62,0,2.49,0,2.49,0V4.69H14.4s-.55-.12-.55.54V6.78H16.2Z"/>
    </g>
  </g>
</svg>
