<svg xmlns="http://www.w3.org/2000/svg" viewBox="0 0 18.55 18.55" id="icon">
  <title>In__Ro2</title>
  <g id="c6f8a86d-449d-4346-91b7-9a01ef1ce803" data-name="katman 2">
    <g id="359bcdcf-309b-4d7a-8396-239c362bb07c" data-name="katman 1">
      <path d="M9.27,0a9.27,9.27,0,1,0,9.27,9.27A9.27,9.27,0,0,0,9.27,0Zm2.44,4.79a.7.7,0,0,1,.7-.7h1.25a.7.7,0,0,1,.7.7V6a.7.7,0,0,1-.7.7H12.41a.7.7,0,0,1-.7-.7ZM6.79,8.89c0-.07,0-.14,0-.21v0A2.46,2.46,0,0,1,7,8.19H7a2.49,2.49,0,0,1,4.61,0h0a2.41,2.41,0,0,1,.14.46v0c0,.07,0,.14,0,.21s0,.17,0,.25a2.49,2.49,0,1,1-5,0C6.78,9.05,6.78,9,6.79,8.89Zm7.57,4.57a.7.7,0,0,1-.7.7H4.88a.7.7,0,0,1-.7-.7V8.18H5.3a4.16,4.16,0,0,0-.11,1,4.09,4.09,0,1,0,8.06-1h1.12Z"/>
    </g>
  </g>
</svg>
