<svg xmlns="http://www.w3.org/2000/svg" viewBox="0 0 18.55 18.55" id="icon">
  <title>In_Ro</title>
  <g id="c5ec5437-14cf-46db-811d-8264edf873bc" data-name="katman 2">
    <g id="77ef6844-1166-47c6-93ad-ccfd62ff81b7" data-name="katman 1">
      <path d="M16.07,0H2.47A2.48,2.48,0,0,0,0,2.47v13.6a2.48,2.48,0,0,0,2.47,2.47h13.6a2.48,2.48,0,0,0,2.47-2.47V2.47A2.48,2.48,0,0,0,16.07,0ZM12.75,3.09a1,1,0,0,1,1-1h1.77a1,1,0,0,1,1,1V4.86a1,1,0,0,1-1,1H13.74a1,1,0,0,1-1-1Zm-7,5.82c0-.1,0-.2,0-.3v0A3.5,3.5,0,0,1,6,7.92H6a3.55,3.55,0,0,1,6.55,0h0a3.42,3.42,0,0,1,.2.65v0c0,.1,0,.2,0,.3s0,.24,0,.36a3.54,3.54,0,1,1-7.09,0C5.73,9.15,5.74,9,5.75,8.91Zm10.76,6.5a1,1,0,0,1-1,1H3a1,1,0,0,1-1-1V7.91H3.62a5.91,5.91,0,0,0-.16,1.36A5.81,5.81,0,1,0,14.92,7.91h1.58Z"/>
    </g>
  </g>
</svg>
