<svg xmlns="http://www.w3.org/2000/svg" viewBox="0 0 18.55 18.55" id="icon">
  <title>Tw_Ro2</title>
  <g id="75b69110-49eb-4613-aebe-fca631c26dbb" data-name="katman 2">
    <g id="623f223e-8c01-4519-bceb-faa2f65e236d" data-name="katman 1">
      <path d="M9.27,0a9.27,9.27,0,1,0,9.27,9.27A9.27,9.27,0,0,0,9.27,0Zm4.6,7.54c0,.09,0,.19,0,.28A6.14,6.14,0,0,1,4.42,13a4.59,4.59,0,0,0,.52,0,4.34,4.34,0,0,0,2.68-.93,2.16,2.16,0,0,1-2-1.5,2.19,2.19,0,0,0,.41,0,2.14,2.14,0,0,0,.57-.08A2.16,2.16,0,0,1,4.84,8.44v0a2.13,2.13,0,0,0,1,.27A2.16,2.16,0,0,1,5.15,5.8,6.13,6.13,0,0,0,9.61,8.06a2.19,2.19,0,0,1-.06-.49,2.16,2.16,0,0,1,3.74-1.48,4.34,4.34,0,0,0,1.37-.52,2.17,2.17,0,0,1-1,1.19A4.29,4.29,0,0,0,15,6.42,4.39,4.39,0,0,1,13.87,7.54Z"/>
    </g>
  </g>
</svg>
