<svg xmlns="http://www.w3.org/2000/svg" viewBox="0 0 18.55 18.55" id="icon">
  <title>Tw_Ro</title>
  <g id="3d607371-bf8f-4251-a65c-087b03443559" data-name="katman 2">
    <g id="2e815b25-9871-41e7-8dd8-303ad7585bc3" data-name="katman 1">
      <path d="M16.87,0H1.68A1.68,1.68,0,0,0,0,1.68V16.87a1.68,1.68,0,0,0,1.68,1.68H16.87a1.68,1.68,0,0,0,1.68-1.68V1.68A1.68,1.68,0,0,0,16.87,0ZM14.36,6.83c0,.11,0,.22,0,.33A7.23,7.23,0,0,1,3.23,13.25a5.4,5.4,0,0,0,.61,0A5.11,5.11,0,0,0,7,12.2a2.55,2.55,0,0,1-2.38-1.77,2.57,2.57,0,0,0,.48,0,2.52,2.52,0,0,0,.67-.09,2.54,2.54,0,0,1-2-2.49v0a2.51,2.51,0,0,0,1.15.32A2.54,2.54,0,0,1,4.1,4.78,7.21,7.21,0,0,0,9.34,7.44a2.57,2.57,0,0,1-.07-.58,2.54,2.54,0,0,1,4.4-1.74,5.11,5.11,0,0,0,1.61-.62,2.55,2.55,0,0,1-1.12,1.41,5.06,5.06,0,0,0,1.46-.4A5.17,5.17,0,0,1,14.36,6.83Z"/>
    </g>
  </g>
</svg>
